<svg width="83" height="52" viewBox="0 0 83 52" fill="none" xmlns="http://www.w3.org/2000/svg">
<path d="M80.8691 24.0056C80.0145 22.987 78.8486 22.3251 77.5122 22.0776L76.8844 13.5574C77.5036 13.5515 78.0317 13.1054 78.1396 12.4942L78.3817 11.1213C78.6412 9.64958 78.2793 8.19685 77.3887 7.13571C76.4992 6.0757 75.1969 5.49175 73.7215 5.49175H64.272L64.732 2.88347C64.8625 2.14266 64.6734 1.40296 64.2132 0.854493C63.7576 0.311484 63.0725 0 62.3336 0H15.8189C14.4434 0 13.1772 1.07012 12.9362 2.43664L8.82094 25.7766C8.69763 26.4766 9.16502 27.1442 9.86505 27.2675C9.94051 27.2809 10.0157 27.2873 10.09 27.2873C10.7028 27.2873 11.246 26.8478 11.356 26.2234L15.4714 2.88347C15.4986 2.72982 15.6964 2.57408 15.8187 2.57408L62.1724 2.57424L58.0812 25.7766C57.9577 26.4766 58.4251 27.1442 59.1253 27.2675C59.8245 27.3907 60.4929 26.9235 60.6162 26.2234L60.9129 24.5409H76.3051C76.3055 24.5409 76.3062 24.5409 76.3068 24.5409C76.3075 24.5409 76.3081 24.5409 76.3086 24.5409C77.3725 24.5411 78.2917 24.9385 78.8971 25.6599C79.3138 26.1565 79.5569 26.7746 79.6153 27.4584H75.3398C74.715 27.4584 74.1807 27.9069 74.0722 28.5221L73.5881 31.268C73.393 32.3743 73.6685 33.4704 74.3438 34.2753C75.0098 35.0692 76.0209 35.5244 77.1173 35.5244H78.3292L77.3306 41.1878H73.9323C73.7087 40.0551 73.2191 39.0132 72.4772 38.1293C71.1608 36.5602 69.2235 35.6962 67.0227 35.6962C63.4938 35.6962 60.0891 38.0051 58.4953 41.188H57.9778L59.6481 31.7152C59.7714 31.0151 59.3041 30.3475 58.6039 30.2242C57.9042 30.1006 57.2363 30.5681 57.113 31.2683L55.3639 41.1881H31.5366C31.313 40.0554 30.8234 39.0137 30.0815 38.1297C28.7649 36.5605 26.8278 35.6965 24.6268 35.6965C21.0979 35.6965 17.6933 38.0054 16.0994 41.1883L8.71722 41.1881L9.23165 38.2708H15.0164C15.7272 38.2708 16.3036 37.6945 16.3036 36.9836C16.3036 36.2728 15.7274 35.6964 15.0164 35.6964H1.2872C0.576406 35.6964 0 36.2726 0 36.9836C0 37.6944 0.576245 38.2708 1.2872 38.2708H6.61791L6.15791 40.8791C6.02738 41.6199 6.21651 42.3596 6.67668 42.908C7.13234 43.451 7.81745 43.7625 8.55634 43.7625H15.2635C14.9146 45.946 15.439 48.0029 16.7516 49.5669C18.0682 51.136 20.0053 52 22.2062 52C26.5869 52 30.778 48.4435 31.5488 44.0716C31.567 43.968 31.5813 43.8651 31.5957 43.7624H57.6594C57.3103 45.9456 57.8347 48.0026 59.1474 49.5667C60.464 51.1359 62.4012 51.9998 64.6021 51.9998C68.9828 51.9998 73.1739 48.4433 73.9447 44.0714C73.9628 43.9679 73.9771 43.865 73.9916 43.7622H78.411C79.0357 43.7622 79.57 43.3138 79.6786 42.6985L82.0995 28.9691C82.428 27.1055 81.9911 25.3428 80.8691 24.0056ZM61.3672 21.9672L62.8499 13.5579H74.3035L74.9231 21.9672H61.3672ZM75.8465 10.6744L75.7919 10.9837H63.3037L63.8181 8.06615H73.7215C74.4227 8.06615 75.0248 8.32337 75.4165 8.79043C75.8228 9.27435 75.9756 9.94324 75.8465 10.6744ZM29.0138 43.6249C28.4499 46.8237 25.3959 49.4259 22.2062 49.4259C20.7795 49.4259 19.5426 48.8884 18.7236 47.9125C17.8809 46.9082 17.5598 45.5444 17.8195 44.0721C18.3835 40.8733 21.4373 38.2711 24.627 38.2711C26.0537 38.2711 27.2907 38.8087 28.1097 39.7847C28.9523 40.7887 29.2734 42.1526 29.0138 43.6249ZM71.4095 43.6249C70.8454 46.8237 67.7916 49.4259 64.6019 49.4259C63.1752 49.4259 61.9383 48.8884 61.1193 47.9123C60.2766 46.908 59.9555 45.5443 60.2152 44.0719C60.779 40.8731 63.833 38.2709 67.0227 38.2709C68.4492 38.2709 69.6864 38.8085 70.5054 39.7845C71.348 40.7887 71.6691 42.1526 71.4095 43.6249ZM78.7831 32.9508H77.1173V32.9507C76.7739 32.9507 76.4968 32.8367 76.3158 32.6212C76.1281 32.3974 76.0596 32.0758 76.1232 31.7156L76.4199 30.0335H79.2976L78.7831 32.9508Z" fill="#AE7C78"/>
<path d="M25.5385 42.0428C25.0828 41.4998 24.3977 41.1883 23.6587 41.1883C22.2832 41.1883 21.017 42.2584 20.776 43.6249C20.6455 44.3658 20.8346 45.1054 21.2948 45.6539C21.7504 46.1969 22.4355 46.5084 23.1744 46.5084C24.5499 46.5084 25.8161 45.4381 26.0571 44.0719C26.1878 43.331 25.9988 42.5914 25.5385 42.0428Z" fill="#AE7C78"/>
<path d="M67.9342 42.0428C67.4784 41.4998 66.7933 41.1883 66.0545 41.1883C64.679 41.1883 63.4129 42.2584 63.172 43.6248C63.0415 44.3658 63.2303 45.1053 63.6906 45.6539C64.1463 46.1969 64.8314 46.5084 65.5703 46.5084C66.9458 46.5084 68.212 45.4381 68.453 44.0719C68.5837 43.331 68.3945 42.5914 67.9342 42.0428Z" fill="#AE7C78"/>
<path d="M51.9206 35.6965H35.6106C34.8998 35.6965 34.3234 36.2728 34.3234 36.9837C34.3234 37.6945 34.8996 38.2709 35.6106 38.2709H51.9206C52.6314 38.2709 53.2078 37.6947 53.2078 36.9837C53.2076 36.2728 52.6314 35.6965 51.9206 35.6965Z" fill="#AE7C78"/>
<path d="M28.7458 30.2048H5.00137C4.29058 30.2048 3.71417 30.781 3.71417 31.492C3.71417 32.2028 4.29026 32.7792 5.00137 32.7792H28.7458C29.4566 32.7792 30.033 32.2029 30.033 31.492C30.033 30.781 29.4567 30.2048 28.7458 30.2048Z" fill="#AE7C78"/>
<path d="M53.3258 25.0263L48.5604 20.9075C48.0225 20.4429 47.2098 20.5018 46.7448 21.0397C46.2798 21.5775 46.3391 22.3903 46.8769 22.8552L49.0265 24.7132H16.3893C15.6785 24.7132 15.1021 25.2894 15.1021 26.0004C15.1021 26.7112 15.6783 27.2876 16.3893 27.2876H48.2102L45.5554 29.0463C44.9626 29.4387 44.8006 30.2375 45.1932 30.8301C45.4408 31.204 45.8502 31.4065 46.2673 31.4065C46.5114 31.4065 46.7583 31.3371 46.977 31.1921L53.1949 27.0734C53.5308 26.8512 53.7429 26.4845 53.7686 26.0824C53.7943 25.6802 53.6305 25.2894 53.3258 25.0263Z" fill="#AE7C78"/>
</svg>
